<svg xmlns="http://www.w3.org/2000/svg" className="clocky" viewBox="0 0 412.1 385.64"><g fill="white" id="Layer_2" data-name="Layer 2"><g id="Layer_1-2" data-name="Layer 1"><path d="M338.67,172.17c1.75-.83,3.55-1.58,5.23-2.52,11.93-6.71,24.57-10.78,38.41-10.5,4,.08,8-.35,11.87.26,14.06,2.22,18.88,12.45,17.77,24.38-1,11-6.33,19.87-16.91,25-7.18,3.49-14,7.62-21.05,11.43-11.76,6.4-20,15.9-25.71,28A56.79,56.79,0,0,1,340,260.86c-2.4,2.8-6,4.61-9.53,7.27,1,2.22,2,4.68,3.15,7.08,6.16,13,6.41,25.82-.83,38.65a35.11,35.11,0,0,0-4.52,19.94c.49,6.78,4.59,9.1,10.89,6.46a17.93,17.93,0,0,1,5.67-1.68,5.11,5.11,0,0,1,5.39,6.44c-.72,3.32-1.3,6.7-2.3,9.93-3.38,10.85-9.45,19.62-19.94,24.73-7.75,3.77-15.81,6.49-24.62,5.87-14.74-1-24.56-9-30.53-22.07-2-4.44-3.58-9.1-5.63-14.36-1.54,1.54-2.82,2.69-4,4a105.52,105.52,0,0,1-31.9,24.32c-12.81,6.47-26.13,7.55-39.49,1.84a32.12,32.12,0,0,1-10.28-6.9,18.91,18.91,0,0,1-.82-25.34c3-3.61,6.41-6.83,10-10.58-13.61-7-25.76-15.13-26.84-32.89-1.39,1-2.12,1.5-2.74,2.07a69.66,69.66,0,0,1-47.49,19c-11.58.19-23.4-1.25-33.94-6.69-8.22-4.24-15.26-10.24-21.71-17-10.55-11.12-16.41-24.27-18.64-39.21-1.47-9.87-2.64-19.8-4.06-29.68a12.18,12.18,0,0,0-1.64-4.52c-1.81-2.93-3.17-3.25-6.4-1.89a65.47,65.47,0,0,1-6.46,2.82,29.6,29.6,0,0,1-7.44,1.38c-7.31.27-11.61-4-12.8-11.27-1.73-10.57.82-20.19,5.88-29.26,3.35-6,6.56-12.28,12.63-16.14a21.31,21.31,0,0,1,6.88-2.91c12.23-2.58,24.24-.5,36.1,2.45a24.71,24.71,0,0,1,13.55,8.73c5.88,7.52,10.33,15.79,11.28,25.55,1.54,16,4.39,31.61,10.13,46.69,3.8,10,8.61,12.73,18.77,9.58,4.71-1.46,8.71-4,10.93-8.42,2.42-4.86,4.35-10,6.46-15,1.07-2.52-1.05-3.59-2.41-4.92a112.14,112.14,0,0,1-21-28.36,123.89,123.89,0,0,1-13-76.71C104.79,74.08,134.46,33.66,186,10.72c32-14.27,65.11-14.62,97.15.91,32.69,15.84,52.22,42.63,60.69,77.59,6.29,26,4.16,51.61-4.21,76.84-.56,1.72-1.12,3.43-1.69,5.15ZM230.25,318.07c-1.45,5.23-2,6.15-4.8,8.94-4.77,4.69-10.63,7.52-16.82,9.79-1.36.49-3,.76-4,1.67-5.11,4.62-10.33,9.17-15,14.23-4,4.4-3.2,10.15,1.6,13.73a21.54,21.54,0,0,0,6.3,3.11,34.15,34.15,0,0,0,26.47-2.3,122.43,122.43,0,0,0,19.16-12.43c11.7-9.08,19.19-21.14,23.11-35.43,3.16-11.56.44-22.1-6.39-31.42-7.77-10.61-8.34-10.5-21.49-9.94-8.45.36-16.09,2.69-22.22,8.85A8.34,8.34,0,0,1,215,288c-2.61,1.77-5.1.81-5.67-2.28s.72-5.71,2.59-8.05c4.45-5.56,10.05-9.57,17-11.17a107.35,107.35,0,0,1,15.07-2.1c7.4-.62,14,1.33,19.44,6.73a15.53,15.53,0,0,0,1.92,1.48c.49-.24.71-.28.78-.4.46-.77.91-1.55,1.32-2.36,5-10.08,14-14.86,24.42-16.1,8.94-1.07,18.14-.74,26.91,2.45a7.42,7.42,0,0,0,4.2-.06,19.17,19.17,0,0,0,12-8.76c1.21-2,2.21-4.18,3.39-6.22,4.83-8.35,9.73-16.51,17.77-22.45a185,185,0,0,1,32.64-19.59c6.36-2.92,10.13-7,11.21-14.07,1.43-9.39-2.82-14.84-12.34-14.74-2.54,0-5.08.3-7.61.19-12.47-.58-24.3,1.66-34.94,8.34-8.16,5.12-15.54,11-20.79,19.53a148.07,148.07,0,0,1-60.25,55.33,30.29,30.29,0,0,1-6,2.48,7.55,7.55,0,0,1-8.44-3.5,7.8,7.8,0,0,1,1.24-9.54,21.31,21.31,0,0,1,5-3.2c44.23-22.48,69.48-58.56,75.54-107.59,3.48-28.24-2.79-54.66-19.69-78C288.61,22.45,248.39,8.47,208.46,18.15,144.12,33.75,99.08,101.4,110,166.7c6,36,25.36,62.42,58.45,78.39,2.62,1.26,5.26,2.49,7.84,3.83,1.28.66,2.86,1.28,3.55,2.39A7.11,7.11,0,0,1,181,256.2c-.3,1.18-2.19,2.4-3.58,2.73a13.17,13.17,0,0,1-5.35-.29c-8.16-1.55-15.41-5.32-22.49-9.46-1.65-1-3.34-1.85-5.38-3-.61,2.25-1.1,3.79-1.43,5.35-4.77,22-20.58,28.05-36.64,28.26-4.14.06-8.1-1-11-4.05-3.23-3.39-6.88-6.87-8.68-11-4.09-9.48-7.82-19.23-8.6-29.7-.7-9.42-.67-18.91-1.72-28.29-1.24-11.18-4.3-21.58-17-25.24a7,7,0,0,1-2-.95c-7.5-5-15.59-5.22-24.09-3.37a17.73,17.73,0,0,0-10.93,6.57,55.56,55.56,0,0,0-9.49,18.87,40.26,40.26,0,0,0-1.13,10.24c-.06,4.43.88,5.3,5.12,4.7a77.46,77.46,0,0,0,10-2.39c3.88-1.11,7.73-1.38,10.8,1.52a23.62,23.62,0,0,1,7.87,15.06c1.26,11.17,3.19,22.27,5.16,33.35.59,3.34,2.17,6.53,3.42,9.74,2.88,7.39,8.71,12.41,14.38,17.52,9.19,8.31,19.29,14.74,32.18,15.32,2.36.1,4.71.35,7.06.56a54.66,54.66,0,0,0,29.14-5c7.19-3.46,14.28-7.15,21.4-10.76,2.55-1.3,5-2.15,7.34,1,1-2.1,1.76-3.74,2.61-5.32,2-3.65,4.29-5,6.79-4,2.33.93,3.1,3.17,2.39,7.05-.55,3-1.3,6.05-1.69,9.1-.57,4.5.27,9,3.1,12.41,6,7.22,18,15.08,30.49,10.78,3.43-1.18,6.87-2.37,10.38-3.28C222.75,319.35,226.12,318.87,230.25,318.07Zm104.6,37.27c-1-.38-1.6-.67-2.25-.86-11.84-3.53-15.93-9.21-15.58-21.55.26-9.29,3.45-17.79,7.2-26.08A22.44,22.44,0,0,0,325.87,292c-1.52-6.71-4.8-12.54-8.67-18.07-2.49-3.56-5.87-5.84-10.51-5.86-3.08,0-6.16-.41-9.24-.48-10.74-.23-18.57,4.89-24.53,12.89a6.61,6.61,0,0,0,.12,1.12c.3.65.6,1.31.95,1.94,8,14.15,10.7,28.86,4.62,44.47-1.25,3.21-2.26,6.57-3.95,9.54a6.93,6.93,0,0,0-.17,7.16c2.45,4.86,4.61,9.89,7.38,14.57,4.89,8.27,12.38,12.71,22,13a38,38,0,0,0,23-7.24A23.81,23.81,0,0,0,334.85,355.34Z"/><path d="M240.3,173.77c4.14,1.27,5.29,4.11,6.16,7.11,2.46,8.47-.35,18.44-6.52,23.39-7.09,5.68-16.74,6.31-25.07,1.57-1.72-1-3.33-2.13-5.31-3.41-1.43,1.7-2.73,3.37-4.17,4.92-6.41,7-14.23,7.9-22,2.51-7.15-5-10.85-11.72-9.41-20.56a18,18,0,0,1,3-6.83,5,5,0,0,1,5.82-1.93,5.44,5.44,0,0,1,3.84,4.85c.18,1.59-.22,3.25-.19,4.87a20.68,20.68,0,0,0,.49,5.35,7.12,7.12,0,0,0,5.78,5.2c3,.53,4.74-1.69,6-3.91a27.28,27.28,0,0,0,2-6.14,7.49,7.49,0,0,0,0-2.16c-.19-5.26,1.29-8,4.7-8.54s5.8,1.26,7.41,6.42c1.75,5.59,5.52,8.83,10.86,10.51,7.84,2.46,13.35-.73,14.82-8.79.69-3.74.75-7.59,1.14-11.38C239.7,176,240,175.14,240.3,173.77Z"/><path d="M241,142.3c-.94-6.11,1.53-10.55,6.45-14,2.87-2,5-1.76,6.78,1.13a6.63,6.63,0,0,1,1.18,3c.22,5.59.53,11.2.29,16.78-.13,3.23-2.11,5.7-5.3,7-3.71,1.51-6.29.51-7.9-3.23a9.47,9.47,0,0,1-.76-2.6C241.38,147.72,241.18,145,241,142.3Z"/><path d="M178.12,142.35c-.67,3.86-1.18,7.82-2.08,11.69-.66,2.82-2.44,4.91-5.57,5.25-2.71.29-5.09-1.48-6.47-4.88a23.12,23.12,0,0,1-.45-16.56c1.15-3.22,4.82-5.71,7.73-8,1.57-1.26,4.47.48,5.29,3.29S177.61,139.13,178.12,142.35Z"/><path d="M126.2,299.12c0,2.81-1.83,3.78-3.6,4.5-7,2.81-13.84,2-20.48-1.19-2.25-1.06-3.9-2.9-3.12-5.65s3.2-3.37,5.66-3c3.93.58,7.85,1.32,11.71,2.27C119.67,296.85,122.87,298.06,126.2,299.12Z"/><path d="M319.58,124c-1.1-2.14-2.25-3.48-2.48-5-1.07-6.75-2-13.53-2.67-20.33a4.45,4.45,0,0,1,2.23-3.67c1.09-.35,3.14.62,4,1.65,4.38,5.13,5.09,19.07,1.45,24.85A19.78,19.78,0,0,1,319.58,124Z"/><path d="M373.25,196.42c-1,1.75-1.54,3.88-2.91,4.88-4.64,3.4-9.5,6.5-14.42,9.49-1.8,1.09-4.23,1-5.32-1a6.17,6.17,0,0,1-.19-5C353.48,198.59,365.44,194.07,373.25,196.42Z"/><path d="M62.37,269.45a6.63,6.63,0,0,1-6.4-4.06,39.55,39.55,0,0,1-4.77-18.7c0-2,0-4.23,2.62-4.69,2.42-.43,3.74,1.24,4.31,3.25,1.68,5.89,3.33,11.8,4.65,17.78C63.2,265,62.55,267.14,62.37,269.45Z"/><path d="M123.25,113.34c-3.65-8.69,5.35-29.21,14.53-35.22.8,3.67.91,3.72-5.75,17.79C129.39,101.51,127.89,107.76,123.25,113.34Z"/><path d="M315.25,89.56c-1.55-2.26-3.12-3.85-3.86-5.75-2-5.07-3.65-10.27-5.37-15.44-.59-1.77-1-4,1.12-4.69,1.4-.43,3.35.45,4.87,1.15a5.92,5.92,0,0,1,2.05,2.48,34.1,34.1,0,0,1,4.28,15.07C318.51,84.85,317.94,85.9,315.25,89.56Z"/><path d="M79.59,292.15c-6.18-.23-12.9-7.36-12.43-12.6a5.34,5.34,0,0,1,2.29-3.85,4.81,4.81,0,0,1,4.38.63A83.52,83.52,0,0,1,82.5,286a4.81,4.81,0,0,1,.4,4.36C82.23,291.47,80.26,291.82,79.59,292.15Z"/><path d="M343.85,213.73c-.47,2.61-.35,4.73-1.22,6.28-2.57,4.53-5.44,8.89-8.42,13.17a3.58,3.58,0,0,1-3.21,1.06,3.87,3.87,0,0,1-2-2.78c-.47-5,2.79-8.39,5.42-12C336.49,216.56,339.06,214.17,343.85,213.73Z"/><path d="M225,308c-1.47,6.95-9.85,12.22-15.71,10.32-2-.66-3.57-1.88-3.69-4.2s1.32-3.7,3.43-4.29A45.39,45.39,0,0,1,225,308Z"/><path d="M153.92,64.23c-1.14,4.67-3.19,8-6.56,10.35-3.21,2.18-6.94.17-6.73-3.67a12.31,12.31,0,0,1,6.46-10.56,6,6,0,0,1,4.95.32C153.14,61.3,153.47,63.3,153.92,64.23Z"/><path d="M195.75,317.07c-5.59,0-11.41-5.51-11.26-10.09,0-1.43.87-3.43,2-4s3.15.17,4.13,1.07a62.71,62.71,0,0,1,6.85,7.61c.78,1,1.47,2.82,1.06,3.77S196.25,316.8,195.75,317.07Z"/><path d="M219.25,342.09c-.3,5.9-3.21,10-7.17,13.22a5,5,0,0,1-4.39.34c-.85-.38-1.5-2.44-1.35-3.64C207,346.92,213.19,342.07,219.25,342.09Z"/><path d="M27.46,201.23c.74.14,2,0,2.8.6a5.8,5.8,0,0,1,2.28,3.26,3.77,3.77,0,0,1-1.9,2.89,29.63,29.63,0,0,1-7.6,2.76,5.16,5.16,0,0,1-4.13-1.6c-.62-.75-.37-2.88.26-3.92C20.91,202.35,23.91,201.49,27.46,201.23Z"/><path d="M52.56,224.54a28.54,28.54,0,0,1-9.68-10c-.94-1.67-1.42-3.8.56-4.77,1.12-.55,3.21-.11,4.39.64C52.67,213.5,54.45,218.69,52.56,224.54Z"/><path d="M167.17,44.09c1.1,5.56-1.65,9.14-5.07,12.19a4.54,4.54,0,0,1-4.35.18c-1-.69-1.56-2.85-1.34-4.2C157.07,48.34,162,44.67,167.17,44.09Z"/><path d="M317.8,241.39c.7.05,1.24.06,1.77.15,3,.48,4.9,2.08,4.88,4.15s-1.82,3.77-4.78,4.33a12.8,12.8,0,0,1-3.21.17c-3.19-.23-4.95-1.61-5.06-3.81s1.55-3.94,4.43-4.66A19.72,19.72,0,0,1,317.8,241.39Z"/><path d="M386.81,189.72c.25,3.32-2,4.79-4.62,5.73a3.2,3.2,0,0,1-2.85-.74,3.6,3.6,0,0,1-.34-3C380,188.87,382.64,188.22,386.81,189.72Z"/><path d="M290.32,345.54c-3.74-.05-5.45-2-6.34-4.73-1.51-4.66-.88-9.34.79-13.78a5,5,0,0,1,3.58-2.48c.76-.09,2.35,1.71,2.54,2.84A42.48,42.48,0,0,1,290.32,345.54Z"/><path d="M288,310.1a22,22,0,0,1-4-15.19,3.78,3.78,0,0,1,2.05-2.75,4,4,0,0,1,3.3,1C293.27,296.92,292.72,305.77,288,310.1Z"/></g></g></svg>